HIERARCHY
ROOT hip
{
  OFFSET 3.87286 85.1205 5.31472
  CHANNELS 6 Xposition Yposition Zposition Zrotation Xrotation Yrotation
  JOINT abdomen
  {
    OFFSET 0 20.6881 -0.73152
    CHANNELS 3 Zrotation Xrotation Yrotation
    JOINT chest
    {
      OFFSET 0 11.7043 -0.48768
      CHANNELS 3 Zrotation Xrotation Yrotation
      JOINT neck
      {
        OFFSET 0 22.1894 -2.19456
        CHANNELS 3 Zrotation Xrotation Yrotation
        JOINT head
        {
          OFFSET -0.24384 7.07133 1.2192
          CHANNELS 3 Zrotation Xrotation Yrotation
          JOINT leftEye
          {
            OFFSET 4.14528 8.04674 8.04672
            CHANNELS 3 Zrotation Xrotation Yrotation
            End Site
            {
              OFFSET 1 0 0
            }
          }
          JOINT rightEye
          {
            OFFSET -3.6576 8.04674 8.04672
            CHANNELS 3 Zrotation Xrotation Yrotation
            End Site
            {
              OFFSET 1 0 0
            }
          }
        }
      }
      JOINT rCollar
      {
        OFFSET -2.68224 19.2634 -4.8768
        CHANNELS 3 Zrotation Xrotation Yrotation
        JOINT rShldr
        {
          OFFSET -8.77824 -1.95073 1.46304
          CHANNELS 3 Zrotation Xrotation Yrotation
          JOINT rForeArm
          {
            OFFSET -28.1742 -1.7115 0.48768
            CHANNELS 3 Zrotation Xrotation Yrotation
            JOINT rHand
            {
              OFFSET -22.5879 0.773209 7.07136
              CHANNELS 3 Zrotation Xrotation Yrotation
              JOINT rThumb1
              {
                OFFSET -1.2192 -0.487915 3.41376
                CHANNELS 3 Zrotation Xrotation Yrotation
                JOINT rThumb2
                {
                  OFFSET -3.37035 -0.52449 3.41376
                  CHANNELS 3 Zrotation Xrotation Yrotation
                  End Site
                  {
                    OFFSET -1.78271 -1.18214 1.43049
                  }
                }
              }
              JOINT rIndex1
              {
                OFFSET -7.75947 0.938293 5.60832
                CHANNELS 3 Zrotation Xrotation Yrotation
                JOINT rIndex2
                {
                  OFFSET -2.54057 -0.884171 1.56538
                  CHANNELS 3 Zrotation Xrotation Yrotation
                  End Site
                  {
                    OFFSET -1.62519 -0.234802 1.16502
                  }
                }
              }
              JOINT rMid1
              {
                OFFSET -8.24714 1.18213 3.41376
                CHANNELS 3 Zrotation Xrotation Yrotation
                JOINT rMid2
                {
                  OFFSET -3.10165 -0.590103 1.0647
                  CHANNELS 3 Zrotation Xrotation Yrotation
                  End Site
                  {
                    OFFSET -2.48547 -0.328903 0.83742
                  }
                }
              }
              JOINT rRing1
              {
                OFFSET -8.82822 0.546677 1.51678
                CHANNELS 3 Zrotation Xrotation Yrotation
                JOINT rRing2
                {
                  OFFSET -2.60934 -0.819778 -0.0198488
                  CHANNELS 3 Zrotation Xrotation Yrotation
                  End Site
                  {
                    OFFSET -2.33842 -0.294052 0.168128
                  }
                }
              }
              JOINT rPinky1
              {
                OFFSET -8.27202 -0.0477905 -0.4584
                CHANNELS 3 Zrotation Xrotation Yrotation
                JOINT rPinky2
                {
                  OFFSET -1.82734 -0.647385 -0.700984
                  CHANNELS 3 Zrotation Xrotation Yrotation
                  End Site
                  {
                    OFFSET -1.69225 -0.51767 -0.607171
                  }
                }
              }
            }
          }
        }
      }
      JOINT lCollar
      {
        OFFSET 2.68224 19.2634 -4.8768
        CHANNELS 3 Zrotation Xrotation Yrotation
        JOINT lShldr
        {
          OFFSET 8.77824 -1.95073 1.46304
          CHANNELS 3 Zrotation Xrotation Yrotation
          JOINT lForeArm
          {
            OFFSET 28.1742 -1.7115 0.48768
            CHANNELS 3 Zrotation Xrotation Yrotation
            JOINT lHand
            {
              OFFSET 22.5879 0.773209 7.07136
              CHANNELS 3 Zrotation Xrotation Yrotation
              JOINT lThumb1
              {
                OFFSET 1.2192 -0.487915 3.41376
                CHANNELS 3 Zrotation Xrotation Yrotation
                JOINT lThumb2
                {
                  OFFSET 3.37035 -0.52449 3.41376
                  CHANNELS 3 Zrotation Xrotation Yrotation
                  End Site
                  {
                    OFFSET 1.78271 -1.18214 1.43049
                  }
                }
              }
              JOINT lIndex1
              {
                OFFSET 7.75947 0.938293 5.60832
                CHANNELS 3 Zrotation Xrotation Yrotation
                JOINT lIndex2
                {
                  OFFSET 2.54057 -0.884171 1.56538
                  CHANNELS 3 Zrotation Xrotation Yrotation
                  End Site
                  {
                    OFFSET 1.62519 -0.234802 1.16502
                  }
                }
              }
              JOINT lMid1
              {
                OFFSET 8.24714 1.18213 3.41376
                CHANNELS 3 Zrotation Xrotation Yrotation
                JOINT lMid2
                {
                  OFFSET 3.10165 -0.590103 1.0647
                  CHANNELS 3 Zrotation Xrotation Yrotation
                  End Site
                  {
                    OFFSET 2.48547 -0.328903 0.83742
                  }
                }
              }
              JOINT lRing1
              {
                OFFSET 8.82822 0.546677 1.51678
                CHANNELS 3 Zrotation Xrotation Yrotation
                JOINT lRing2
                {
                  OFFSET 2.60934 -0.819778 -0.0198488
                  CHANNELS 3 Zrotation Xrotation Yrotation
                  End Site
                  {
                    OFFSET 2.33842 -0.294052 0.168128
                  }
                }
              }
              JOINT lPinky1
              {
                OFFSET 8.27202 -0.0477905 -0.4584
                CHANNELS 3 Zrotation Xrotation Yrotation
                JOINT lPinky2
                {
                  OFFSET 1.82734 -0.647385 -0.700984
                  CHANNELS 3 Zrotation Xrotation Yrotation
                  End Site
                  {
                    OFFSET 1.69225 -0.51767 -0.607171
                  }
                }
              }
            }
          }
        }
      }
    }
  }
  JOINT rButtock
  {
    OFFSET -8.77824 4.35084 1.2192
    CHANNELS 3 Zrotation Xrotation Yrotation
    JOINT rThigh
    {
      OFFSET 0 -1.70687 -2.19456
      CHANNELS 3 Zrotation Xrotation Yrotation
      JOINT rShin
      {
        OFFSET 0 -36.8199 0.73152
        CHANNELS 3 Zrotation Xrotation Yrotation
        JOINT rFoot
        {
          OFFSET 0.73152 -45.1104 -5.12064
          CHANNELS 3 Zrotation Xrotation Yrotation
          End Site
          {
            OFFSET -1.1221 -3.69964 12.103
          }
        }
      }
    }
  }
  JOINT lButtock
  {
    OFFSET 8.77824 4.35084 1.2192
    CHANNELS 3 Zrotation Xrotation Yrotation
    JOINT lThigh
    {
      OFFSET 0 -1.70687 -2.19456
      CHANNELS 3 Zrotation Xrotation Yrotation
      JOINT lShin
      {
        OFFSET 0 -36.8199 0.73152
        CHANNELS 3 Zrotation Xrotation Yrotation
        JOINT lFoot
        {
          OFFSET -0.73152 -45.1104 -5.12064
          CHANNELS 3 Zrotation Xrotation Yrotation
          End Site
          {
            OFFSET 1.1221 -3.69964 12.103
          }
        }
      }
    }
  }
}
MOTION
Frames:	5
Frame Time:	0.00833333
2.10569 83.2634 5.01187 0.873309 -1.30089 -1.83629 -4.99932 14.0891 4.50153 -0.609823 -11.2443 0.910467 -14.5755 2.59528 -12.0939 27.1076 -5.78934 -19.4466 -0 0 0 -0 0 0 9.05206e-015 -7.65257e-014 -5.39203e-014 -1.0665 21.7231 78.6593 -23.2712 -17.7943 47.3803 -0.735386 23.5963 3.5196 3.44338e-010 1.75554e-009 8.94995e-010 6.12393e-010 3.06209e-009 1.54184e-009 3.44347e-010 1.75554e-009 8.94986e-010 7.73091 5.47488 0.417314 3.44338e-010 1.75554e-009 8.94999e-010 2.90554 0.965183 0.102902 3.44346e-010 1.75554e-009 8.95001e-010 10.2786 0.731801 0.0259123 3.44336e-010 1.75554e-009 8.95014e-010 2.22167 -0.733487 -0.20892 8.93862e-015 -7.65399e-014 -5.41688e-014 -76.8351 52.5319 -0.898464 11.7616 -5.28282 -21.1494 0.0185874 -3.88922 0.547443 1.32116e-009 1.59705e-010 -9.8289e-010 2.28467e-009 2.77799e-010 -1.69665e-009 1.32115e-009 1.59701e-010 -9.8288e-010 -7.73091 5.47488 -0.417314 1.32116e-009 1.59701e-010 -9.82887e-010 -2.90554 0.965183 -0.102902 1.32115e-009 1.59698e-010 -9.82885e-010 -10.2786 0.731801 -0.0259123 1.32116e-009 1.59701e-010 -9.8289e-010 -2.22167 -0.733487 0.20892 -2.03217e-016 0 -3.88251e-019 -2.67596 -6.87989 12.0008 -0.146708 21.7271 0.414651 -3.42042 -8.43623 -12.2992 2.03217e-016 0 3.88251e-019 0.340455 -8.33396 -10.437 -0.0200247 24.9492 -0.405933 2.57824 -11.1051 9.64517 
2.10015 83.2679 4.96009 0.858105 -1.23388 -1.73081 -4.89089 14.0627 4.37934 -0.602816 -11.3117 0.88061 -14.5497 2.58019 -12.0647 26.9465 -5.71175 -19.4112 -0 0 0 -0 0 0 1.92259e-016 -5.25618e-014 -5.57156e-014 1.04978 21.2509 77.6338 -23.3009 -17.8454 47.4679 -0.675407 22.7112 3.37134 2.57959e-010 1.0652e-009 4.97517e-010 4.55863e-010 1.85603e-009 8.56572e-010 2.57967e-010 1.0652e-009 4.97509e-010 7.73091 5.47488 0.417314 2.57958e-010 1.0652e-009 4.9752e-010 2.90554 0.965183 0.102902 2.57967e-010 1.0652e-009 4.97524e-010 10.2786 0.731801 0.0259123 2.57958e-010 1.0652e-009 4.97538e-010 2.22167 -0.733487 -0.20892 7.64769e-017 -5.25716e-014 -5.59944e-014 -77.0587 52.4686 -0.62507 11.7602 -5.28184 -21.1466 0.0204373 -4.07657 0.573904 8.12475e-010 1.8684e-010 -4.2038e-010 1.40431e-009 3.23998e-010 -7.24441e-010 8.12465e-010 1.86837e-010 -4.20368e-010 -7.73091 5.47488 -0.417314 8.12479e-010 1.86837e-010 -4.20376e-010 -2.90554 0.965183 -0.102902 8.12467e-010 1.86834e-010 -4.20376e-010 -10.2786 0.731801 -0.0259123 8.12477e-010 1.86837e-010 -4.2038e-010 -2.22167 -0.733487 0.20892 -2.03217e-016 0 -3.88251e-019 -2.64932 -6.90828 12.0293 -0.146529 21.6819 0.413851 -3.44727 -8.39907 -12.4406 2.03217e-016 0 3.88251e-019 0.364501 -8.43187 -10.4434 -0.0198417 24.9373 -0.404275 2.54787 -11.0579 9.54507 
2.12713 83.2772 4.94019 0.861995 -1.1619 -1.63239 -4.78591 14.0049 4.26667 -0.630682 -11.3608 0.850315 -14.5037 2.59923 -12.0315 26.7751 -5.65666 -19.3755 -0 0 0 -0 0 0 -1.57736e-014 -1.66971e-014 -5.37402e-014 3.25394 20.6914 76.5675 -23.3399 -17.9125 47.5836 -0.605523 21.5775 3.18529 1.54146e-010 5.37317e-011 -8.87448e-011 2.65859e-010 8.80611e-011 -1.54848e-010 1.54152e-010 5.37306e-011 -8.8752e-011 7.73091 5.47488 0.417314 1.54145e-010 5.37337e-011 -8.8743e-011 2.90554 0.965183 0.102902 1.54152e-010 5.37336e-011 -8.87373e-011 10.2786 0.731801 0.0259123 1.54145e-010 5.37331e-011 -8.87226e-011 2.22167 -0.733487 -0.20892 -1.59087e-014 -1.66997e-014 -5.40694e-014 -77.2697 52.3812 -0.337189 11.7575 -5.28001 -21.1415 0.0222437 -4.2552 0.599141 7.62322e-011 2.44492e-010 4.20258e-010 1.30035e-010 4.22488e-010 7.28277e-010 7.62252e-011 2.44491e-010 4.20275e-010 -7.73091 5.47488 -0.417314 7.62367e-011 2.44491e-010 4.20262e-010 -2.90554 0.965183 -0.102902 7.62249e-011 2.44488e-010 4.20263e-010 -10.2786 0.731801 -0.0259123 7.62352e-011 2.44491e-010 4.20259e-010 -2.22167 -0.733487 0.20892 -2.03217e-016 0 -3.88251e-019 -2.65362 -6.93113 12.0416 -0.146311 21.628 0.412866 -3.47103 -8.34712 -12.5828 2.03217e-016 0 3.88251e-019 0.361287 -8.5171 -10.4482 -0.0199009 24.9069 -0.40218 2.51855 -10.9962 9.45375 
2.16329 83.286 4.92529 0.876378 -1.09234 -1.54623 -4.68987 13.934 4.16027 -0.670384 -11.3942 0.820458 -14.4493 2.6171 -11.996 26.5965 -5.59059 -19.3392 -0 0 0 -0 0 0 -3.17562e-014 1.65335e-014 -4.76679e-014 5.50978 20.055 75.498 -23.381 -17.9836 47.7067 -0.533968 20.312 2.98163 5.19151e-011 -9.22944e-010 -6.45079e-010 7.91244e-011 -1.61895e-009 -1.11479e-009 5.19191e-011 -9.22945e-010 -6.45085e-010 7.73091 5.47488 0.417314 5.19126e-011 -9.22941e-010 -6.45078e-010 2.90554 0.965183 0.102902 5.19201e-011 -9.22941e-010 -6.45071e-010 10.2786 0.731801 0.0259123 5.19134e-011 -9.22941e-010 -6.45056e-010 2.22167 -0.733487 -0.20892 -3.19145e-014 1.65384e-014 -4.80445e-014 -77.4598 52.2693 -0.0641447 11.7505 -5.27521 -21.1281 0.0238026 -4.40249 0.61996 -6.21218e-010 2.97392e-010 1.20798e-009 -1.07707e-009 5.12783e-010 2.08941e-009 -6.21222e-010 2.97395e-010 1.208e-009 -7.73091 5.47488 -0.417314 -6.21213e-010 2.97393e-010 1.20798e-009 -2.90554 0.965183 -0.102902 -6.21224e-010 2.97391e-010 1.20798e-009 -10.2786 0.731801 -0.0259123 -6.21214e-010 2.97393e-010 1.20798e-009 -2.22167 -0.733487 0.20892 -2.03217e-016 0 -3.88251e-019 -2.67444 -6.94968 12.049 -0.14609 21.5714 0.411871 -3.49166 -8.29419 -12.7135 2.03217e-016 0 3.88251e-019 0.344455 -8.58675 -10.4492 -0.0201446 24.8633 -0.399929 2.49055 -10.9307 9.36959 
2.19184 83.2976 4.92253 0.892723 -1.03262 -1.47754 -4.6081 13.8681 4.05687 -0.698886 -11.4148 0.791918 -14.3983 2.59853 -11.9594 26.4137 -5.48001 -19.3016 -0 0 0 -0 0 0 -4.0666e-014 3.25954e-014 -3.71727e-014 7.78372 19.3583 74.4595 -23.4174 -18.0468 47.8162 -0.465888 19.0319 2.77876 -2.97175e-011 -1.50889e-009 -9.52773e-010 -6.75943e-011 -2.64212e-009 -1.64561e-009 -2.97147e-011 -1.50889e-009 -9.5278e-010 7.73091 5.47488 0.417314 -2.97207e-011 -1.50889e-009 -9.52773e-010 2.90554 0.965183 0.102902 -2.97137e-011 -1.50889e-009 -9.52765e-010 10.2786 0.731801 0.0259123 -2.97199e-011 -1.50889e-009 -9.52751e-010 2.22167 -0.733487 -0.20892 -4.08385e-014 3.26052e-014 -3.75703e-014 -77.6211 52.1332 0.165051 11.7362 -5.26534 -21.1003 0.0248541 -4.49582 0.63316 -1.01352e-009 3.10273e-010 1.61174e-009 -1.75593e-009 5.34397e-010 2.78685e-009 -1.01353e-009 3.10277e-010 1.61176e-009 -7.73091 5.47488 -0.417314 -1.01352e-009 3.10275e-010 1.61174e-009 -2.90554 0.965183 -0.102902 -1.01353e-009 3.10273e-010 1.61174e-009 -10.2786 0.731801 -0.0259123 -1.01352e-009 3.10275e-010 1.61174e-009 -2.22167 -0.733487 0.20892 -2.03217e-016 0 -3.88251e-019 -2.6973 -6.96514 12.0629 -0.145904 21.5182 0.411042 -3.50931 -8.25408 -12.8205 2.03217e-016 0 3.88251e-019 0.327652 -8.63793 -10.444 -0.0205165 24.8115 -0.3978 2.4641 -10.8718 9.29096 
